<svg xmlns="http://www.w3.org/2000/svg" viewBox="0 0 1626 804" preserveAspectRatio="xMidYMid meet">
  <title>Locked Slotenmakers logo</title>
  <g transform="translate(0.000000,804.000000) scale(0.100000,-0.100000)" fill-rule="evenodd" stroke="none">
    <path fill="#0237aa" d="M803 5345 c-181 -49 -320 -190 -367 -371 -14 -55 -16 -256 -16 -1915
l0 -1854 28 -80 c62 -178 193 -300 366 -340 56 -13 262 -15 1533 -13 l1468 3
0 105 0 105 -1480 5 -1480 5 -43 23 c-66 35 -119 88 -149 150 l-28 57 0 1840
0 1840 28 57 c58 117 147 169 305 176 l102 5 0 108 0 109 -107 -1 c-60 0 -132
-7 -160 -14z"/>
<path fill="#0237aa" d="M2420 5250 l0 -110 928 2 927 3 3 108 3 107 -931 0 -930 0 0 -110z"/>
<path fill="#0237aa" d="M5436 5259 c-4 -56 -3 -106 1 -110 5 -5 2193 -10 4863 -11 l4855 -3
49 -23 c67 -33 137 -106 159 -167 16 -47 17 -155 15 -1890 l-3 -1840 -23 -46
c-28 -58 -93 -123 -152 -152 l-45 -22 -1470 -5 -1470 -5 -3 -107 -3 -108 1477
0 c1617 0 1517 -3 1639 58 75 38 180 147 215 226 63 139 60 18 60 2006 0 1989
3 1884 -60 2017 -37 81 -131 180 -209 222 -125 66 323 61 -5032 61 l-4856 0
-7 -101z"/>
<path fill="#0237aa" d="M3927 3854 c-199 -36 -320 -143 -368 -326 -18 -67 -19 -117 -19 -767
0 -754 1 -758 56 -875 32 -67 107 -140 185 -178 116 -56 137 -58 774 -58 625
0 667 3 771 51 68 33 155 118 188 184 55 113 57 146 54 911 l-3 699 -23 63
c-62 173 -191 276 -379 301 -37 5 -313 9 -613 9 -422 0 -562 -3 -623 -14z
m728 -445 c77 -21 129 -52 185 -108 79 -79 120 -171 120 -271 0 -105 -41 -194
-130 -280 l-66 -65 12 -60 c6 -33 23 -116 38 -185 68 -316 79 -382 64 -391 -7
-5 -156 -9 -331 -9 -275 0 -318 2 -323 15 -4 9 3 55 15 103 19 80 77 350 102
481 11 54 10 55 -18 75 -53 37 -106 100 -132 155 -23 49 -26 69 -26 161 0 99
2 110 33 172 47 95 135 168 246 203 52 16 159 18 211 4z"/>
<path fill="#0237aa" d="M4315 1211 c-92 -23 -135 -87 -135 -203 0 -74 18 -118 63 -152 29
-22 60 -31 173 -50 115 -19 140 -26 156 -45 27 -34 24 -96 -7 -126 -22 -22
-32 -25 -105 -25 -113 0 -150 21 -150 86 0 23 -3 24 -70 24 l-70 0 0 -38 c0
-21 11 -61 25 -89 21 -41 35 -56 73 -74 42 -21 62 -23 182 -23 155 0 209 16
251 75 22 31 24 44 24 136 l0 102 -34 35 c-39 40 -93 61 -201 75 -142 20 -169
36 -170 103 0 59 33 78 136 78 96 0 124 -16 124 -70 l0 -30 70 0 c67 0 70 1
70 23 0 13 -7 46 -15 74 -17 58 -57 94 -120 112 -44 12 -223 13 -270 2z"/>
<path fill="#0237aa" d="M4957 1213 c-8 -12 -9 -640 -1 -678 l6 -35 64 0 64 0 0 360 0 360
-64 0 c-36 0 -67 -3 -69 -7z"/>
<path fill="#0237aa" d="M9620 1218 c-1 -60 -1 -620 -1 -661 l1 -58 63 3 62 3 3 76 c3 72 5
78 37 109 42 41 38 44 121 -88 l61 -97 77 -3 c42 -2 76 0 76 3 0 3 -42 68 -93
143 -51 75 -96 143 -101 150 -5 8 17 38 66 90 40 42 84 89 97 105 l24 27 -80
0 -81 0 -89 -99 c-48 -55 -94 -99 -101 -98 -10 2 -14 44 -15 197 l-2 195 -62
3 c-35 2 -63 2 -63 0z"/>
<path fill="#0237aa" d="M6060 1096 c0 -69 -5 -76 -61 -76 -28 0 -29 -1 -29 -50 0 -50 0 -50
33 -50 54 0 57 -9 57 -172 0 -167 8 -195 63 -228 25 -16 50 -20 115 -20 l82 0
0 55 0 55 -49 0 c-78 0 -82 8 -79 168 l3 137 63 3 62 3 0 49 0 50 -49 0 c-78
0 -81 3 -81 76 l0 64 -65 0 -65 0 0 -64z"/>
<path fill="#0237aa" d="M5440 1022 c-42 -12 -86 -43 -106 -76 -16 -27 -19 -52 -19 -187 l0
-156 29 -37 c45 -59 82 -71 217 -70 100 1 122 4 155 23 75 43 79 55 79 241 0
157 -1 167 -23 198 -39 54 -73 66 -197 68 -60 2 -121 0 -135 -4z m206 -123
c16 -17 20 -40 22 -124 5 -135 -7 -160 -77 -170 -28 -4 -64 -4 -81 0 -55 12
-60 25 -60 154 0 150 7 161 109 161 56 0 71 -4 87 -21z"/>
<path fill="#0237aa" d="M6633 1023 c-12 -2 -41 -21 -65 -42 l-43 -39 -3 -168 -3 -169 29 -41
c41 -57 110 -78 235 -72 135 6 196 47 209 138 3 24 1 25 -59 28 -60 3 -63 2
-77 -27 -18 -34 -69 -47 -135 -36 -54 9 -73 33 -69 86 l3 44 170 5 170 5 -4
84 c-4 124 -22 158 -96 192 -31 14 -62 18 -140 17 -55 0 -110 -3 -122 -5z
m206 -117 c16 -17 22 -33 19 -57 l-3 -33 -100 -1 -100 0 -3 36 c-4 53 31 79
108 79 47 0 60 -4 79 -24z"/>
<path fill="#0237aa" d="M7425 1016 c-16 -7 -38 -23 -49 -34 -22 -25 -36 -20 -36 14 0 23 -3
24 -65 24 l-65 0 0 -260 0 -261 68 3 67 3 5 182 c5 173 6 184 28 205 19 19 33
23 87 23 53 0 67 -4 79 -20 22 -30 29 -87 21 -175 -4 -44 -4 -111 0 -150 l7
-71 62 3 61 3 0 217 c0 203 -1 218 -21 245 -32 44 -80 63 -154 63 -36 -1 -78
-7 -95 -14z"/>
<path fill="#0237aa" d="M7941 1022 c-8 -3 -11 -83 -11 -263 l0 -259 70 0 70 0 0 183 c0 182
0 184 24 206 15 14 42 25 69 28 37 4 48 2 66 -18 20 -22 21 -32 21 -211 l0
-189 68 3 67 3 6 190 c3 105 6 191 7 192 1 1 15 9 32 18 40 21 86 19 110 -5
18 -18 20 -33 20 -179 0 -87 3 -173 6 -190 6 -31 7 -31 70 -31 l64 0 0 205 c0
222 -5 249 -54 294 -19 18 -41 26 -80 29 -76 6 -118 -4 -161 -38 l-37 -29 -29
29 c-49 48 -167 54 -227 12 -37 -27 -42 -27 -42 -2 0 11 -3 20 -7 21 -24 3
-113 4 -122 1z"/>
<path fill="#0237aa" d="M9025 1015 c-22 -8 -50 -26 -62 -41 -22 -28 -37 -79 -27 -95 7 -12
124 -11 124 1 0 27 41 50 89 50 67 0 103 -28 99 -79 l-3 -36 -120 -5 c-135 -6
-174 -21 -200 -76 -22 -47 -19 -132 5 -172 50 -81 226 -97 296 -27 19 18 34
11 34 -16 0 -17 7 -19 60 -19 l60 0 0 222 0 221 -39 37 c-21 20 -53 40 -71 44
-57 11 -203 6 -245 -9z m223 -302 c13 -26 -5 -80 -31 -97 -32 -20 -98 -29
-130 -17 -36 14 -51 48 -38 84 14 35 40 46 123 46 54 1 69 -2 76 -16z"/>
<path fill="#0237aa" d="M10393 1021 c-43 -11 -79 -35 -100 -68 -15 -23 -18 -51 -18 -194 l0
-168 30 -31 c55 -58 78 -65 205 -64 133 0 178 14 210 66 11 18 20 48 20 66 l0
32 -65 0 c-48 0 -65 -4 -65 -13 0 -31 -35 -47 -103 -47 -59 0 -68 3 -86 26
-12 15 -21 41 -21 60 0 43 4 43 195 47 l150 2 0 85 c0 98 -12 129 -68 174 -37
30 -42 31 -145 33 -59 1 -122 -2 -139 -6z m195 -108 c23 -21 36 -75 21 -90
-12 -12 -189 -5 -203 7 -12 12 1 57 24 80 27 27 128 28 158 3z"/>
<path fill="#0237aa" d="M10976 1021 c-6 -9 -11 -334 -7 -468 l1 -53 70 0 70 0 0 171 c0 97 4
179 10 189 15 29 48 43 115 49 60 6 60 6 63 40 6 60 -4 81 -41 81 -50 0 -106
-19 -120 -41 -17 -27 -35 -24 -39 9 -3 25 -6 27 -60 30 -31 2 -59 -2 -62 -7z"/>
<path fill="#0237aa" d="M11555 1015 c-22 -8 -41 -15 -42 -15 -1 0 -14 -17 -28 -37 -49 -74
-25 -188 48 -217 17 -8 73 -19 122 -26 101 -14 135 -30 135 -63 0 -30 -11 -44
-43 -56 -64 -24 -141 -7 -157 34 -9 23 -15 25 -70 25 l-60 0 0 -39 c0 -44 26
-83 73 -108 48 -26 246 -25 305 1 105 47 111 228 8 271 -18 8 -75 22 -127 31
-98 17 -134 38 -122 72 10 30 36 42 90 42 52 0 93 -22 93 -50 0 -7 22 -10 58
-8 l57 3 3 37 c3 30 -3 42 -31 71 -23 22 -48 36 -73 40 -67 11 -197 7 -239 -8z"/>
    <path fill="#000000" d="M3035 7755 c-229 -37 -368 -81 -570 -180 -257 -126 -442 -268 -612
-470 -187 -222 -308 -452 -375 -715 -52 -206 -51 -191 -55 -912 l-5 -678 -96
-1 c-53 -1 -133 -3 -177 -5 l-80 -3 0 -1563 0 -1563 1130 0 1130 0 3 313 2
312 -675 0 c-533 0 -675 3 -675 13 -1 6 0 842 0 1857 0 1144 4 1877 10 1930
15 126 43 239 82 337 62 153 175 312 317 445 169 160 401 278 651 333 102 23
339 31 453 15 196 -25 354 -85 522 -196 183 -120 344 -301 424 -476 49 -108
61 -140 88 -243 l27 -100 3 -532 4 -533 275 0 274 0 0 490 c0 517 -6 606 -51
799 -59 247 -180 491 -340 686 -127 154 -239 256 -393 357 -208 137 -427 224
-686 274 -120 23 -484 28 -605 9z"/>
<path fill="#000000" d="M8110 3155 l0 -1495 305 0 305 0 0 300 c0 301 0 301 23 323 13 12 87
84 165 160 78 75 146 137 151 137 5 0 33 -37 64 -82 51 -77 112 -174 410 -648
60 -96 115 -178 121 -182 17 -12 676 -10 676 2 0 12 -56 101 -249 395 -101
156 -398 609 -491 752 -55 84 -100 155 -100 158 0 2 78 80 172 172 95 92 297
291 448 440 l275 273 -379 0 -379 0 -439 -445 c-242 -245 -446 -445 -454 -445
-12 0 -14 128 -14 840 l0 840 -305 0 -305 0 0 -1495z"/>
<path fill="#000000" d="M14360 4206 c0 -298 -3 -447 -10 -451 -6 -4 -17 -2 -24 4 -8 6 -46
27 -85 46 -122 59 -209 68 -599 61 -183 -3 -354 -11 -380 -17 -26 -5 -84 -28
-128 -49 -127 -61 -210 -165 -260 -325 -18 -56 -19 -102 -19 -710 0 -608 1
-654 19 -710 61 -194 168 -303 366 -371 50 -17 88 -19 460 -19 l405 0 84 32
c46 18 98 44 117 58 18 14 37 25 43 25 7 0 11 -24 11 -60 l0 -60 298 2 297 3
3 1493 2 1492 -300 0 -300 0 0 -444z m-140 -846 c57 -22 89 -51 116 -106 l25
-51 -3 -444 c-3 -440 -3 -444 -26 -487 -12 -23 -41 -55 -63 -71 -60 -44 -136
-53 -414 -49 -235 3 -242 4 -290 29 -35 18 -59 39 -80 74 l-30 48 -3 436 c-2
309 0 448 8 476 22 74 88 137 164 156 54 14 556 5 596 -11z"/>
<path fill="#000000" d="M11000 3863 c-224 -20 -366 -105 -452 -269 -74 -140 -73 -133 -73
-839 0 -683 0 -678 56 -803 55 -123 160 -217 296 -264 l68 -23 610 0 c602 0
611 0 680 22 136 43 233 125 293 248 43 89 57 149 57 255 l0 95 -292 1 -293 1
-30 -53 c-62 -110 -130 -129 -460 -122 -214 4 -215 4 -267 32 -97 53 -126 126
-121 306 l3 115 733 3 733 2 -3 443 c-3 414 -5 446 -24 498 -49 134 -130 231
-238 284 -135 66 -135 66 -716 69 -289 1 -541 1 -560 -1z m811 -476 c58 -29
108 -85 124 -141 17 -55 20 -232 5 -256 -8 -13 -68 -15 -415 -17 -242 -1 -417
2 -432 8 l-25 9 4 123 c4 131 14 164 67 220 62 68 108 76 401 74 204 -2 240
-5 271 -20z"/>
<path fill="#000000" d="M6285 3840 c-181 -37 -324 -162 -387 -340 -23 -65 -23 -65 -26 -725
-3 -721 -3 -728 56 -855 56 -121 214 -234 363 -259 105 -18 1057 -15 1153 3
100 20 177 59 251 127 113 106 155 231 155 465 l0 134 -290 0 c-159 0 -290 -1
-290 -2 -1 -2 -3 -30 -7 -63 -7 -78 -34 -129 -83 -161 -36 -24 -55 -28 -181
-37 -100 -7 -179 -7 -270 0 -142 13 -178 27 -223 86 -43 56 -47 120 -44 572
l3 421 26 49 c15 30 42 62 68 80 l43 30 243 3 c150 2 259 -1 283 -8 82 -21
123 -81 132 -190 l5 -65 293 -3 292 -2 0 147 c0 165 -13 235 -59 338 -54 119
-176 213 -322 249 -56 14 -140 16 -605 15 -296 -1 -557 -5 -579 -9z"/>
  </g>
</svg>
